<svg height="682pt" viewBox="-21 -49 682.66669 682" width="682pt" xmlns="http://www.w3.org/2000/svg"><path d="m222.40625 583.089844c-35.859375 0-70.105469-6.722656-102.0625-20.074219-32.472656-13.5625-61.5625-33.75-84.140625-58.375l-35.890625-39.152344 52.503906 8.019531c49.167969 7.511719 80.695313 2.496094 99.824219-4.277343-15.339844-7.253907-34.078125-17.675781-53.0625-32.039063-59.25-44.847656-92.722656-106.898437-96.789063-179.4375l-2.789062-49.773437 22.476562 23c-3.644531-24.023438-4.277343-54.671875 3.101563-91.125l11.707031-57.835938 14.117188 32.105469c3.277344-24.859375 11.503906-53.242188 30.214844-80.363281l24.390624-35.34375 9.269532 41.925781c10.367187 46.875 27.203125 85.820312 50.042968 115.753906 17.902344 23.457032 39.585938 41.523438 64.449219 53.699219 23.230469 11.378906 45.136719 15.527344 60.382813 16.945313-.753906-5.996094-1.128906-12.050782-1.128906-18.140626 0-80.027343 65.113281-145.140624 145.140624-145.140624 33.3125 0 65.855469 11.570312 91.632813 32.585937 22.503906 18.339844 39.050781 43.15625 47.367187 70.722656l66.835938 20.859375-60.699219 49.386719v8.0625c0 88.757813-35.207031 171.863281-99.148437 234.007813-61.839844 60.105468-145.949219 96.777343-236.828125 103.257812-7.03125.496094-14.007813.746094-20.917969.746094zm0 0"/></svg>